<?xml version="1.0" standalone="no"?>
<!DOCTYPE svg PUBLIC "-//W3C//DTD SVG 20010904//EN"
 "http://www.w3.org/TR/2001/REC-SVG-20010904/DTD/svg10.dtd">
<svg version="1.0" xmlns="http://www.w3.org/2000/svg"
 width="263.000000pt" height="263.000000pt" viewBox="0 0 263.000000 263.000000"
 preserveAspectRatio="xMidYMid meet">
<metadata>
Created by potrace 1.14, written by Peter Selinger 2001-2017
</metadata>
<g transform="translate(0.000000,263.000000) scale(0.100000,-0.100000)"
fill="#000000" stroke="none">
<path d="M891 2551 c-10 -10 -30 -39 -44 -62 -47 -81 -537 -1164 -537 -1187 0
-20 41 -24 60 -7 11 10 63 94 116 187 53 93 101 171 106 174 5 3 12 -5 15 -17
8 -33 187 -382 222 -432 74 -108 103 -100 50 13 -70 147 -180 416 -182 445 -2
26 3 30 78 60 177 70 269 130 391 256 130 135 184 230 184 325 0 56 -29 89
-87 99 -138 23 -322 -121 -555 -432 -38 -51 -71 -93 -73 -93 -7 0 27 82 136
326 120 271 142 316 163 333 9 7 13 17 10 22 -9 15 -33 10 -53 -10z m357 -193
c21 -21 14 -108 -12 -165 -63 -135 -204 -286 -343 -368 -76 -44 -238 -104
-250 -91 -8 7 67 121 166 251 106 139 281 313 356 353 69 36 67 36 83 20z"/>
<path d="M1403 1958 c-6 -7 -38 -114 -73 -238 -115 -419 -180 -645 -195 -677
-18 -40 -37 -42 -97 -8 -139 77 -347 38 -431 -81 -30 -43 -44 -105 -33 -148
10 -39 63 -94 120 -124 44 -23 63 -27 141 -27 152 0 284 60 325 148 11 23 68
213 125 422 58 209 112 386 119 394 9 8 24 11 40 7 31 -8 99 -118 117 -189 11
-46 8 -159 -7 -251 -7 -43 8 -61 37 -45 27 14 77 127 84 190 10 80 -13 158
-96 325 -40 81 -80 179 -92 226 -20 75 -24 83 -48 86 -14 2 -30 -3 -36 -10z"/>
<path d="M2207 1218 c-24 -29 -92 -117 -151 -195 -151 -202 -342 -430 -352
-420 -3 3 31 86 76 186 44 100 80 193 80 206 0 34 -37 42 -85 19 -36 -17 -181
-183 -272 -314 -22 -30 -61 -86 -87 -123 -26 -38 -50 -66 -52 -64 -3 3 38 96
90 208 104 224 127 290 110 317 -31 48 -115 11 -212 -92 -69 -74 -93 -129 -74
-171 17 -36 42 -32 42 6 0 50 26 92 105 168 68 66 95 84 95 62 0 -29 -60 -163
-282 -629 -40 -84 -43 -112 -12 -112 25 0 70 53 247 290 205 273 308 403 314
396 3 -3 -31 -90 -74 -193 -97 -227 -100 -239 -73 -253 42 -22 92 23 309 282
72 87 136 160 142 163 5 4 -40 -89 -100 -207 -206 -400 -290 -646 -232 -678
37 -19 51 -13 44 20 -12 65 87 296 327 760 188 364 202 396 180 410 -33 21
-59 10 -103 -42z"/>
</g>
</svg>
